<svg xmlns="http://www.w3.org/2000/svg" xmlns:xlink="http://www.w3.org/1999/xlink" width="500" zoomAndPan="magnify" viewBox="0 0 375 374.999991" height="500" preserveAspectRatio="xMidYMid meet" version="1.0"><defs><g/><clipPath id="7841f68906"><path d="M 12 44 L 47 44 L 47 80 L 12 80 Z M 12 44 " clip-rule="nonzero"/></clipPath><clipPath id="84aab40ea2"><path d="M 1.039062 61.734375 L 32.398438 30.375 L 60.902344 58.882812 L 29.546875 90.238281 Z M 1.039062 61.734375 " clip-rule="nonzero"/></clipPath><clipPath id="2bec539c27"><path d="M 1.039062 61.734375 L 32.398438 30.375 L 60.902344 58.882812 L 29.546875 90.238281 Z M 1.039062 61.734375 " clip-rule="nonzero"/></clipPath><clipPath id="d1ae12f1d7"><path d="M 31 0.160156 L 91 0.160156 L 91 61 L 31 61 Z M 31 0.160156 " clip-rule="nonzero"/></clipPath><clipPath id="098eb1852b"><path d="M 31.046875 31.726562 L 62.402344 0.371094 L 90.910156 28.875 L 59.554688 60.230469 Z M 31.046875 31.726562 " clip-rule="nonzero"/></clipPath><clipPath id="a475d4713b"><path d="M 14 11 L 49 11 L 49 47 L 14 47 Z M 14 11 " clip-rule="nonzero"/></clipPath><clipPath id="faa4ba5929"><path d="M 0.046875 31.726562 L 31.402344 0.371094 L 59.910156 28.875 L 28.554688 60.230469 Z M 0.046875 31.726562 " clip-rule="nonzero"/></clipPath><clipPath id="25265cb01a"><path d="M 60.054688 29.046875 L 28.699219 60.402344 L 0.195312 31.898438 L 31.550781 0.542969 Z M 60.054688 29.046875 " clip-rule="nonzero"/></clipPath><clipPath id="9e05b5c235"><rect x="0" width="60" y="0" height="61"/></clipPath><clipPath id="c95b36a60c"><path d="M 25.664062 27.097656 L 63.527344 27.097656 L 63.527344 64.960938 L 25.664062 64.960938 Z M 25.664062 27.097656 " clip-rule="nonzero"/></clipPath><clipPath id="d0e0631fd7"><path d="M 25.664062 46.03125 C 25.664062 35.574219 34.140625 27.097656 44.597656 27.097656 C 55.050781 27.097656 63.527344 35.574219 63.527344 46.03125 C 63.527344 56.484375 55.050781 64.960938 44.597656 64.960938 C 34.140625 64.960938 25.664062 56.484375 25.664062 46.03125 Z M 25.664062 46.03125 " clip-rule="nonzero"/></clipPath><clipPath id="6de27c68f0"><path d="M 0.664062 0.0976562 L 38.527344 0.0976562 L 38.527344 37.960938 L 0.664062 37.960938 Z M 0.664062 0.0976562 " clip-rule="nonzero"/></clipPath><clipPath id="ae04e92159"><path d="M 0.664062 19.03125 C 0.664062 8.574219 9.140625 0.0976562 19.597656 0.0976562 C 30.050781 0.0976562 38.527344 8.574219 38.527344 19.03125 C 38.527344 29.484375 30.050781 37.960938 19.597656 37.960938 C 9.140625 37.960938 0.664062 29.484375 0.664062 19.03125 Z M 0.664062 19.03125 " clip-rule="nonzero"/></clipPath><linearGradient x1="0.00000649064" gradientTransform="matrix(0, -0.147905, 0.147905, 0, 0.664978, 37.961744)" y1="128" x2="255.999997" gradientUnits="userSpaceOnUse" y2="128" id="904327bf90"><stop stop-opacity="1" stop-color="rgb(0%, 59.21936%, 69.799805%)" offset="0"/><stop stop-opacity="1" stop-color="rgb(0.192261%, 59.320068%, 69.659424%)" offset="0.0078125"/><stop stop-opacity="1" stop-color="rgb(0.576782%, 59.521484%, 69.380188%)" offset="0.015625"/><stop stop-opacity="1" stop-color="rgb(0.96283%, 59.724426%, 69.102478%)" offset="0.0234375"/><stop stop-opacity="1" stop-color="rgb(1.348877%, 59.925842%, 68.823242%)" offset="0.03125"/><stop stop-opacity="1" stop-color="rgb(1.734924%, 60.128784%, 68.544006%)" offset="0.0390625"/><stop stop-opacity="1" stop-color="rgb(2.120972%, 60.3302%, 68.266296%)" offset="0.046875"/><stop stop-opacity="1" stop-color="rgb(2.507019%, 60.533142%, 67.987061%)" offset="0.0546875"/><stop stop-opacity="1" stop-color="rgb(2.893066%, 60.734558%, 67.707825%)" offset="0.0625"/><stop stop-opacity="1" stop-color="rgb(3.279114%, 60.9375%, 67.428589%)" offset="0.0703125"/><stop stop-opacity="1" stop-color="rgb(3.665161%, 61.138916%, 67.150879%)" offset="0.078125"/><stop stop-opacity="1" stop-color="rgb(4.051208%, 61.341858%, 66.871643%)" offset="0.0859375"/><stop stop-opacity="1" stop-color="rgb(4.437256%, 61.543274%, 66.592407%)" offset="0.09375"/><stop stop-opacity="1" stop-color="rgb(4.823303%, 61.746216%, 66.314697%)" offset="0.101562"/><stop stop-opacity="1" stop-color="rgb(5.209351%, 61.947632%, 66.035461%)" offset="0.109375"/><stop stop-opacity="1" stop-color="rgb(5.595398%, 62.150574%, 65.756226%)" offset="0.117188"/><stop stop-opacity="1" stop-color="rgb(5.981445%, 62.353516%, 65.478516%)" offset="0.125"/><stop stop-opacity="1" stop-color="rgb(6.367493%, 62.554932%, 65.19928%)" offset="0.132812"/><stop stop-opacity="1" stop-color="rgb(6.75354%, 62.757874%, 64.920044%)" offset="0.140625"/><stop stop-opacity="1" stop-color="rgb(7.139587%, 62.95929%, 64.642334%)" offset="0.148438"/><stop stop-opacity="1" stop-color="rgb(7.525635%, 63.162231%, 64.363098%)" offset="0.15625"/><stop stop-opacity="1" stop-color="rgb(7.911682%, 63.363647%, 64.083862%)" offset="0.164062"/><stop stop-opacity="1" stop-color="rgb(8.297729%, 63.566589%, 63.806152%)" offset="0.171875"/><stop stop-opacity="1" stop-color="rgb(8.683777%, 63.768005%, 63.526917%)" offset="0.179688"/><stop stop-opacity="1" stop-color="rgb(9.069824%, 63.970947%, 63.247681%)" offset="0.1875"/><stop stop-opacity="1" stop-color="rgb(9.455872%, 64.172363%, 62.969971%)" offset="0.195312"/><stop stop-opacity="1" stop-color="rgb(9.841919%, 64.375305%, 62.690735%)" offset="0.203125"/><stop stop-opacity="1" stop-color="rgb(10.227966%, 64.576721%, 62.411499%)" offset="0.210938"/><stop stop-opacity="1" stop-color="rgb(10.614014%, 64.779663%, 62.133789%)" offset="0.21875"/><stop stop-opacity="1" stop-color="rgb(11.000061%, 64.981079%, 61.854553%)" offset="0.226562"/><stop stop-opacity="1" stop-color="rgb(11.386108%, 65.184021%, 61.575317%)" offset="0.234375"/><stop stop-opacity="1" stop-color="rgb(11.772156%, 65.385437%, 61.296082%)" offset="0.242188"/><stop stop-opacity="1" stop-color="rgb(12.158203%, 65.588379%, 61.018372%)" offset="0.25"/><stop stop-opacity="1" stop-color="rgb(12.54425%, 65.789795%, 60.739136%)" offset="0.257812"/><stop stop-opacity="1" stop-color="rgb(12.930298%, 65.992737%, 60.4599%)" offset="0.265625"/><stop stop-opacity="1" stop-color="rgb(13.316345%, 66.194153%, 60.18219%)" offset="0.273438"/><stop stop-opacity="1" stop-color="rgb(13.702393%, 66.397095%, 59.902954%)" offset="0.28125"/><stop stop-opacity="1" stop-color="rgb(14.08844%, 66.598511%, 59.623718%)" offset="0.289062"/><stop stop-opacity="1" stop-color="rgb(14.474487%, 66.801453%, 59.346008%)" offset="0.296875"/><stop stop-opacity="1" stop-color="rgb(14.860535%, 67.002869%, 59.066772%)" offset="0.304688"/><stop stop-opacity="1" stop-color="rgb(15.246582%, 67.205811%, 58.787537%)" offset="0.3125"/><stop stop-opacity="1" stop-color="rgb(15.632629%, 67.407227%, 58.509827%)" offset="0.320312"/><stop stop-opacity="1" stop-color="rgb(16.018677%, 67.610168%, 58.230591%)" offset="0.328125"/><stop stop-opacity="1" stop-color="rgb(16.404724%, 67.811584%, 57.951355%)" offset="0.335938"/><stop stop-opacity="1" stop-color="rgb(16.790771%, 68.014526%, 57.673645%)" offset="0.34375"/><stop stop-opacity="1" stop-color="rgb(17.176819%, 68.215942%, 57.394409%)" offset="0.351562"/><stop stop-opacity="1" stop-color="rgb(17.562866%, 68.418884%, 57.115173%)" offset="0.359375"/><stop stop-opacity="1" stop-color="rgb(17.948914%, 68.6203%, 56.837463%)" offset="0.367188"/><stop stop-opacity="1" stop-color="rgb(18.334961%, 68.823242%, 56.558228%)" offset="0.375"/><stop stop-opacity="1" stop-color="rgb(18.721008%, 69.024658%, 56.278992%)" offset="0.382812"/><stop stop-opacity="1" stop-color="rgb(19.10553%, 69.2276%, 56.001282%)" offset="0.390625"/><stop stop-opacity="1" stop-color="rgb(19.491577%, 69.429016%, 55.722046%)" offset="0.398438"/><stop stop-opacity="1" stop-color="rgb(19.877625%, 69.631958%, 55.44281%)" offset="0.40625"/><stop stop-opacity="1" stop-color="rgb(20.263672%, 69.833374%, 55.1651%)" offset="0.414062"/><stop stop-opacity="1" stop-color="rgb(20.649719%, 70.036316%, 54.885864%)" offset="0.421875"/><stop stop-opacity="1" stop-color="rgb(21.035767%, 70.237732%, 54.606628%)" offset="0.429688"/><stop stop-opacity="1" stop-color="rgb(21.421814%, 70.440674%, 54.327393%)" offset="0.4375"/><stop stop-opacity="1" stop-color="rgb(21.807861%, 70.64209%, 54.049683%)" offset="0.445312"/><stop stop-opacity="1" stop-color="rgb(22.193909%, 70.845032%, 53.770447%)" offset="0.453125"/><stop stop-opacity="1" stop-color="rgb(22.579956%, 71.046448%, 53.491211%)" offset="0.460938"/><stop stop-opacity="1" stop-color="rgb(22.966003%, 71.24939%, 53.213501%)" offset="0.46875"/><stop stop-opacity="1" stop-color="rgb(23.352051%, 71.450806%, 52.934265%)" offset="0.476562"/><stop stop-opacity="1" stop-color="rgb(23.738098%, 71.653748%, 52.655029%)" offset="0.484375"/><stop stop-opacity="1" stop-color="rgb(24.124146%, 71.855164%, 52.377319%)" offset="0.492188"/><stop stop-opacity="1" stop-color="rgb(24.510193%, 72.058105%, 52.098083%)" offset="0.5"/><stop stop-opacity="1" stop-color="rgb(24.89624%, 72.259521%, 51.818848%)" offset="0.507812"/><stop stop-opacity="1" stop-color="rgb(25.282288%, 72.462463%, 51.541138%)" offset="0.515625"/><stop stop-opacity="1" stop-color="rgb(25.668335%, 72.663879%, 51.261902%)" offset="0.523438"/><stop stop-opacity="1" stop-color="rgb(26.054382%, 72.866821%, 50.982666%)" offset="0.53125"/><stop stop-opacity="1" stop-color="rgb(26.44043%, 73.068237%, 50.704956%)" offset="0.539062"/><stop stop-opacity="1" stop-color="rgb(26.826477%, 73.271179%, 50.42572%)" offset="0.546875"/><stop stop-opacity="1" stop-color="rgb(27.212524%, 73.472595%, 50.146484%)" offset="0.554688"/><stop stop-opacity="1" stop-color="rgb(27.598572%, 73.675537%, 49.868774%)" offset="0.5625"/><stop stop-opacity="1" stop-color="rgb(27.984619%, 73.876953%, 49.589539%)" offset="0.570312"/><stop stop-opacity="1" stop-color="rgb(28.370667%, 74.079895%, 49.310303%)" offset="0.578125"/><stop stop-opacity="1" stop-color="rgb(28.756714%, 74.281311%, 49.032593%)" offset="0.585938"/><stop stop-opacity="1" stop-color="rgb(29.142761%, 74.484253%, 48.753357%)" offset="0.59375"/><stop stop-opacity="1" stop-color="rgb(29.528809%, 74.685669%, 48.474121%)" offset="0.601562"/><stop stop-opacity="1" stop-color="rgb(29.914856%, 74.888611%, 48.194885%)" offset="0.609375"/><stop stop-opacity="1" stop-color="rgb(30.300903%, 75.090027%, 47.917175%)" offset="0.617188"/><stop stop-opacity="1" stop-color="rgb(30.686951%, 75.292969%, 47.637939%)" offset="0.625"/><stop stop-opacity="1" stop-color="rgb(31.072998%, 75.494385%, 47.358704%)" offset="0.632812"/><stop stop-opacity="1" stop-color="rgb(31.459045%, 75.697327%, 47.080994%)" offset="0.640625"/><stop stop-opacity="1" stop-color="rgb(31.845093%, 75.898743%, 46.801758%)" offset="0.648438"/><stop stop-opacity="1" stop-color="rgb(32.23114%, 76.101685%, 46.522522%)" offset="0.65625"/><stop stop-opacity="1" stop-color="rgb(32.617188%, 76.303101%, 46.244812%)" offset="0.664062"/><stop stop-opacity="1" stop-color="rgb(33.003235%, 76.506042%, 45.965576%)" offset="0.671875"/><stop stop-opacity="1" stop-color="rgb(33.389282%, 76.707458%, 45.68634%)" offset="0.679688"/><stop stop-opacity="1" stop-color="rgb(33.77533%, 76.9104%, 45.40863%)" offset="0.6875"/><stop stop-opacity="1" stop-color="rgb(34.161377%, 77.111816%, 45.129395%)" offset="0.695312"/><stop stop-opacity="1" stop-color="rgb(34.547424%, 77.314758%, 44.850159%)" offset="0.703125"/><stop stop-opacity="1" stop-color="rgb(34.933472%, 77.516174%, 44.572449%)" offset="0.710938"/><stop stop-opacity="1" stop-color="rgb(35.319519%, 77.719116%, 44.293213%)" offset="0.71875"/><stop stop-opacity="1" stop-color="rgb(35.705566%, 77.920532%, 44.013977%)" offset="0.726562"/><stop stop-opacity="1" stop-color="rgb(36.091614%, 78.123474%, 43.736267%)" offset="0.734375"/><stop stop-opacity="1" stop-color="rgb(36.477661%, 78.32489%, 43.457031%)" offset="0.742188"/><stop stop-opacity="1" stop-color="rgb(36.863708%, 78.527832%, 43.177795%)" offset="0.75"/><stop stop-opacity="1" stop-color="rgb(37.249756%, 78.729248%, 42.900085%)" offset="0.757812"/><stop stop-opacity="1" stop-color="rgb(37.634277%, 78.93219%, 42.62085%)" offset="0.765625"/><stop stop-opacity="1" stop-color="rgb(38.020325%, 79.133606%, 42.341614%)" offset="0.773438"/><stop stop-opacity="1" stop-color="rgb(38.406372%, 79.336548%, 42.062378%)" offset="0.78125"/><stop stop-opacity="1" stop-color="rgb(38.792419%, 79.537964%, 41.784668%)" offset="0.789062"/><stop stop-opacity="1" stop-color="rgb(39.178467%, 79.740906%, 41.505432%)" offset="0.796875"/><stop stop-opacity="1" stop-color="rgb(39.564514%, 79.942322%, 41.226196%)" offset="0.804688"/><stop stop-opacity="1" stop-color="rgb(39.950562%, 80.145264%, 40.948486%)" offset="0.8125"/><stop stop-opacity="1" stop-color="rgb(40.336609%, 80.348206%, 40.66925%)" offset="0.820312"/><stop stop-opacity="1" stop-color="rgb(40.722656%, 80.549622%, 40.390015%)" offset="0.828125"/><stop stop-opacity="1" stop-color="rgb(41.108704%, 80.752563%, 40.112305%)" offset="0.835938"/><stop stop-opacity="1" stop-color="rgb(41.494751%, 80.953979%, 39.833069%)" offset="0.84375"/><stop stop-opacity="1" stop-color="rgb(41.880798%, 81.156921%, 39.553833%)" offset="0.851562"/><stop stop-opacity="1" stop-color="rgb(42.266846%, 81.358337%, 39.276123%)" offset="0.859375"/><stop stop-opacity="1" stop-color="rgb(42.652893%, 81.561279%, 38.996887%)" offset="0.867188"/><stop stop-opacity="1" stop-color="rgb(43.03894%, 81.762695%, 38.717651%)" offset="0.875"/><stop stop-opacity="1" stop-color="rgb(43.424988%, 81.965637%, 38.439941%)" offset="0.882812"/><stop stop-opacity="1" stop-color="rgb(43.811035%, 82.167053%, 38.160706%)" offset="0.890625"/><stop stop-opacity="1" stop-color="rgb(44.197083%, 82.369995%, 37.88147%)" offset="0.898438"/><stop stop-opacity="1" stop-color="rgb(44.58313%, 82.571411%, 37.60376%)" offset="0.90625"/><stop stop-opacity="1" stop-color="rgb(44.969177%, 82.774353%, 37.324524%)" offset="0.914062"/><stop stop-opacity="1" stop-color="rgb(45.355225%, 82.975769%, 37.045288%)" offset="0.921875"/><stop stop-opacity="1" stop-color="rgb(45.741272%, 83.178711%, 36.767578%)" offset="0.929688"/><stop stop-opacity="1" stop-color="rgb(46.127319%, 83.380127%, 36.488342%)" offset="0.9375"/><stop stop-opacity="1" stop-color="rgb(46.513367%, 83.583069%, 36.209106%)" offset="0.945312"/><stop stop-opacity="1" stop-color="rgb(46.899414%, 83.784485%, 35.929871%)" offset="0.953125"/><stop stop-opacity="1" stop-color="rgb(47.285461%, 83.987427%, 35.652161%)" offset="0.960938"/><stop stop-opacity="1" stop-color="rgb(47.671509%, 84.188843%, 35.372925%)" offset="0.96875"/><stop stop-opacity="1" stop-color="rgb(48.057556%, 84.391785%, 35.093689%)" offset="0.976562"/><stop stop-opacity="1" stop-color="rgb(48.443604%, 84.593201%, 34.815979%)" offset="0.984375"/><stop stop-opacity="1" stop-color="rgb(48.829651%, 84.796143%, 34.536743%)" offset="0.992188"/><stop stop-opacity="1" stop-color="rgb(49.215698%, 84.997559%, 34.257507%)" offset="1"/></linearGradient><clipPath id="172b2d2f23"><rect x="0" width="39" y="0" height="38"/></clipPath><clipPath id="cb2a68d171"><path d="M 25.664062 27.105469 L 63.523438 27.105469 L 63.523438 64.960938 L 25.664062 64.960938 Z M 25.664062 27.105469 " clip-rule="nonzero"/></clipPath><clipPath id="e721d89f52"><path d="M 25.664062 46.035156 C 25.664062 35.578125 34.140625 27.105469 44.59375 27.105469 C 55.046875 27.105469 63.523438 35.578125 63.523438 46.035156 C 63.523438 56.488281 55.046875 64.960938 44.59375 64.960938 C 34.140625 64.960938 25.664062 56.488281 25.664062 46.035156 Z M 25.664062 46.035156 " clip-rule="nonzero"/></clipPath><clipPath id="db880f6c55"><rect x="0" width="92" y="0" height="91"/></clipPath></defs><g transform="matrix(1, 0, 0, 1, 45, 140)"><g clip-path="url(#db880f6c55)"><g clip-path="url(#7841f68906)"><g clip-path="url(#84aab40ea2)"><g clip-path="url(#2bec539c27)"><path fill="#393636" d="M 46.710938 73.386719 L 38.28125 73.386719 L 38.28125 59.113281 L 18.355469 79.039062 L 12.394531 73.078125 L 32.320312 53.15625 L 18.046875 53.15625 L 18.046875 44.726562 L 46.710938 44.726562 Z M 46.710938 73.386719 " fill-opacity="1" fill-rule="nonzero"/></g></g></g><g clip-path="url(#d1ae12f1d7)"><g clip-path="url(#098eb1852b)"><g transform="matrix(1, 0, 0, 1, 31, 0)"><g clip-path="url(#9e05b5c235)"><g clip-path="url(#a475d4713b)"><g clip-path="url(#faa4ba5929)"><g clip-path="url(#25265cb01a)"><path fill="#393636" d="M 14.386719 17.394531 L 22.816406 17.394531 L 22.816406 31.667969 L 42.742188 11.742188 L 48.699219 17.703125 L 28.777344 37.625 L 43.046875 37.625 L 43.046875 46.054688 L 14.386719 46.054688 Z M 14.386719 17.394531 " fill-opacity="1" fill-rule="nonzero"/></g></g></g></g></g></g></g><g clip-path="url(#c95b36a60c)"><g clip-path="url(#d0e0631fd7)"><g transform="matrix(1, 0, 0, 1, 25, 27)"><g clip-path="url(#172b2d2f23)"><g clip-path="url(#6de27c68f0)"><g clip-path="url(#ae04e92159)"><path fill="url(#904327bf90)" d="M 0.664062 37.960938 L 38.527344 37.960938 L 38.527344 0.0976562 L 0.664062 0.0976562 Z M 0.664062 37.960938 " fill-rule="nonzero"/></g></g></g></g></g></g><g clip-path="url(#cb2a68d171)"><g clip-path="url(#e721d89f52)"><path stroke-linecap="butt" transform="matrix(0, -0.575905, 0.575905, 0, 25.664978, 64.961743)" fill="none" stroke-linejoin="miter" d="M 32.864062 -0.00158929 C 51.021616 -0.00158929 65.733508 14.717085 65.733508 32.867857 C 65.733508 51.018628 51.021616 65.737302 32.864062 65.737302 C 14.713291 65.737302 0.00139926 51.018628 0.00139926 32.867857 C 0.00139926 14.717085 14.713291 -0.00158929 32.864062 -0.00158929 Z M 32.864062 -0.00158929 " stroke="#393636" stroke-width="10.418379" stroke-opacity="1" stroke-miterlimit="4"/></g></g></g></g><g fill="#393636" fill-opacity="1"><g transform="translate(125.624835, 204.517355)"><g><path d="M 35.234375 -19.25 L 35.234375 0 L 28.59375 0 L 28.59375 -2.65625 C 25.632812 -0.539062 22.316406 0.515625 18.640625 0.515625 C 13.910156 0.515625 9.875 -1.15625 6.53125 -4.5 C 3.195312 -7.832031 1.53125 -11.863281 1.53125 -16.59375 C 1.53125 -21.320312 3.195312 -25.359375 6.53125 -28.703125 C 9.875 -32.035156 13.910156 -33.703125 18.640625 -33.703125 C 22.859375 -33.703125 26.566406 -32.335938 29.765625 -29.609375 L 24.65625 -24.5625 C 22.851562 -25.882812 20.847656 -26.546875 18.640625 -26.546875 C 15.847656 -26.546875 13.515625 -25.578125 11.640625 -23.640625 C 9.671875 -21.671875 8.6875 -19.320312 8.6875 -16.59375 C 8.6875 -13.875 9.671875 -11.523438 11.640625 -9.546875 C 13.578125 -7.609375 15.910156 -6.640625 18.640625 -6.640625 C 21.328125 -6.640625 23.675781 -7.609375 25.6875 -9.546875 C 25.75 -9.617188 25.816406 -9.6875 25.890625 -9.75 L 26.140625 -10.015625 C 26.378906 -10.285156 26.601562 -10.539062 26.8125 -10.78125 C 27.382812 -11.488281 27.773438 -12.097656 27.984375 -12.609375 L 20.328125 -12.609375 L 20.328125 -19.25 Z M 28.546875 -12.609375 L 28.59375 -12.5625 L 28.59375 -12.609375 Z M 28.546875 -12.609375 "/></g></g></g><g fill="#393636" fill-opacity="1"><g transform="translate(162.386975, 204.517355)"><g><path d="M 26.859375 -12 C 26.890625 -11.28125 26.890625 -10.851562 26.859375 -10.71875 L 7.65625 -10.78125 C 7.925781 -9.988281 8.421875 -9.238281 9.140625 -8.53125 C 10.460938 -7.269531 11.992188 -6.640625 13.734375 -6.640625 C 15.578125 -6.703125 17.109375 -7.347656 18.328125 -8.578125 L 18.53125 -8.78125 L 25.171875 -6.6875 C 23.710938 -4.40625 22.179688 -2.769531 20.578125 -1.78125 C 18.773438 -0.625 16.507812 -0.03125 13.78125 0 C 10.175781 0.03125 7.082031 -1.226562 4.5 -3.78125 C 1.90625 -6.332031 0.59375 -9.429688 0.5625 -13.078125 C 0.53125 -16.679688 1.789062 -19.773438 4.34375 -22.359375 C 6.894531 -24.953125 9.992188 -26.265625 13.640625 -26.296875 C 17.242188 -26.328125 20.335938 -25.066406 22.921875 -22.515625 C 25.515625 -19.960938 26.828125 -16.863281 26.859375 -13.21875 Z M 13.6875 -19.609375 C 11.882812 -19.609375 10.351562 -18.976562 9.09375 -17.71875 C 8.445312 -17 7.984375 -16.285156 7.703125 -15.578125 L 19.703125 -15.578125 C 19.429688 -16.285156 18.957031 -17.015625 18.28125 -17.765625 C 16.988281 -18.992188 15.457031 -19.609375 13.6875 -19.609375 Z M 13.6875 -19.609375 "/></g></g></g><g fill="#393636" fill-opacity="1"><g transform="translate(188.018043, 204.517355)"><g><path d="M 20.46875 -26.296875 L 20.46875 -19.15625 L 14.609375 -19.15625 L 14.609375 0 L 7.453125 0 L 7.453125 -19.15625 L 1.53125 -19.15625 L 1.53125 -26.296875 L 7.453125 -26.296875 L 7.453125 -35.484375 L 14.609375 -35.484375 L 14.609375 -26.296875 Z M 20.46875 -26.296875 "/></g></g></g><g fill="#393636" fill-opacity="1"><g transform="translate(210.024263, 204.517355)"><g><path d="M 35.234375 -19.25 L 35.234375 0 L 28.59375 0 L 28.59375 -2.65625 C 25.632812 -0.539062 22.316406 0.515625 18.640625 0.515625 C 13.910156 0.515625 9.875 -1.15625 6.53125 -4.5 C 3.195312 -7.832031 1.53125 -11.863281 1.53125 -16.59375 C 1.53125 -21.320312 3.195312 -25.359375 6.53125 -28.703125 C 9.875 -32.035156 13.910156 -33.703125 18.640625 -33.703125 C 22.859375 -33.703125 26.566406 -32.335938 29.765625 -29.609375 L 24.65625 -24.5625 C 22.851562 -25.882812 20.847656 -26.546875 18.640625 -26.546875 C 15.847656 -26.546875 13.515625 -25.578125 11.640625 -23.640625 C 9.671875 -21.671875 8.6875 -19.320312 8.6875 -16.59375 C 8.6875 -13.875 9.671875 -11.523438 11.640625 -9.546875 C 13.578125 -7.609375 15.910156 -6.640625 18.640625 -6.640625 C 21.328125 -6.640625 23.675781 -7.609375 25.6875 -9.546875 C 25.75 -9.617188 25.816406 -9.6875 25.890625 -9.75 L 26.140625 -10.015625 C 26.378906 -10.285156 26.601562 -10.539062 26.8125 -10.78125 C 27.382812 -11.488281 27.773438 -12.097656 27.984375 -12.609375 L 20.328125 -12.609375 L 20.328125 -19.25 Z M 28.546875 -12.609375 L 28.59375 -12.5625 L 28.59375 -12.609375 Z M 28.546875 -12.609375 "/></g></g></g><g fill="#393636" fill-opacity="1"><g transform="translate(246.786403, 204.517355)"><g><path d="M 1.53125 -26.40625 L 8.171875 -26.40625 L 8.171875 -13.125 C 8.171875 -12.613281 8.253906 -12.035156 8.421875 -11.390625 C 8.628906 -10.609375 8.9375 -9.894531 9.34375 -9.25 C 10.46875 -7.539062 12.066406 -6.6875 14.140625 -6.6875 C 16.421875 -6.6875 18.070312 -7.554688 19.09375 -9.296875 C 19.46875 -9.910156 19.742188 -10.625 19.921875 -11.4375 C 20.054688 -12.019531 20.125 -12.597656 20.125 -13.171875 L 20.125 -26.40625 L 27.265625 -26.40625 L 27.265625 0 L 20.125 0 L 20.125 -2.75 C 18.445312 -0.914062 16.300781 0 13.6875 0 C 10.3125 0.03125 7.453125 -1.175781 5.109375 -3.625 C 2.722656 -6.039062 1.53125 -9.035156 1.53125 -12.609375 Z M 1.53125 -26.40625 "/></g></g></g><g fill="#393636" fill-opacity="1"><g transform="translate(275.583409, 204.517355)"><g><path d="M 8.625 -35.59375 L 8.625 -29.5625 L 1.53125 -29.5625 L 1.53125 -35.59375 Z M 8.6875 -26.25 L 8.6875 0 L 1.53125 0 L 1.53125 -26.25 Z M 8.6875 -26.25 "/></g></g></g><g fill="#393636" fill-opacity="1"><g transform="translate(285.795121, 204.517355)"><g><path d="M 22.109375 0 L 22.109375 -3.015625 C 19.660156 -1.003906 16.882812 0 13.78125 0 C 10.175781 0.03125 7.082031 -1.226562 4.5 -3.78125 C 1.90625 -6.332031 0.59375 -9.429688 0.5625 -13.078125 C 0.53125 -16.679688 1.789062 -19.773438 4.34375 -22.359375 C 6.894531 -24.953125 9.992188 -26.265625 13.640625 -26.296875 C 16.796875 -26.296875 19.601562 -25.289062 22.0625 -23.28125 L 22.0625 -35.640625 L 29.203125 -35.640625 L 29.265625 0 Z M 18.328125 -8.578125 C 19.585938 -9.835938 20.21875 -11.367188 20.21875 -13.171875 C 20.15625 -15.015625 19.507812 -16.546875 18.28125 -17.765625 C 16.988281 -18.992188 15.457031 -19.609375 13.6875 -19.609375 C 11.882812 -19.609375 10.351562 -18.976562 9.09375 -17.71875 C 7.832031 -16.320312 7.21875 -14.789062 7.25 -13.125 C 7.25 -11.320312 7.878906 -9.789062 9.140625 -8.53125 C 10.398438 -7.269531 11.929688 -6.640625 13.734375 -6.640625 C 15.578125 -6.703125 17.109375 -7.347656 18.328125 -8.578125 Z M 18.328125 -8.578125 "/></g></g></g><g fill="#393636" fill-opacity="1"><g transform="translate(316.583411, 204.517355)"><g><path d="M 26.859375 -12 C 26.890625 -11.28125 26.890625 -10.851562 26.859375 -10.71875 L 7.65625 -10.78125 C 7.925781 -9.988281 8.421875 -9.238281 9.140625 -8.53125 C 10.460938 -7.269531 11.992188 -6.640625 13.734375 -6.640625 C 15.578125 -6.703125 17.109375 -7.347656 18.328125 -8.578125 L 18.53125 -8.78125 L 25.171875 -6.6875 C 23.710938 -4.40625 22.179688 -2.769531 20.578125 -1.78125 C 18.773438 -0.625 16.507812 -0.03125 13.78125 0 C 10.175781 0.03125 7.082031 -1.226562 4.5 -3.78125 C 1.90625 -6.332031 0.59375 -9.429688 0.5625 -13.078125 C 0.53125 -16.679688 1.789062 -19.773438 4.34375 -22.359375 C 6.894531 -24.953125 9.992188 -26.265625 13.640625 -26.296875 C 17.242188 -26.328125 20.335938 -25.066406 22.921875 -22.515625 C 25.515625 -19.960938 26.828125 -16.863281 26.859375 -13.21875 Z M 13.6875 -19.609375 C 11.882812 -19.609375 10.351562 -18.976562 9.09375 -17.71875 C 8.445312 -17 7.984375 -16.285156 7.703125 -15.578125 L 19.703125 -15.578125 C 19.429688 -16.285156 18.957031 -17.015625 18.28125 -17.765625 C 16.988281 -18.992188 15.457031 -19.609375 13.6875 -19.609375 Z M 13.6875 -19.609375 "/></g></g></g></svg>