<svg xmlns="http://www.w3.org/2000/svg" xmlns:xlink="http://www.w3.org/1999/xlink" width="500" zoomAndPan="magnify" viewBox="0 0 375 374.999991" height="500" preserveAspectRatio="xMidYMid meet" version="1.0"><defs><clipPath id="947c899a1b"><path d="M 150 76 L 299 76 L 299 225 L 150 225 Z M 150 76 " clip-rule="nonzero"/></clipPath><clipPath id="11b320c60a"><path d="M 150.4375 153.738281 L 227.863281 76.308594 L 298.929688 147.375 L 221.5 224.804688 Z M 150.4375 153.738281 " clip-rule="nonzero"/></clipPath><clipPath id="12947478e5"><path d="M 35 28 L 121 28 L 121 114 L 35 114 Z M 35 28 " clip-rule="nonzero"/></clipPath><clipPath id="aa0e09c442"><path d="M 0.4375 77.738281 L 77.863281 0.308594 L 148.929688 71.375 L 71.5 148.804688 Z M 0.4375 77.738281 " clip-rule="nonzero"/></clipPath><clipPath id="53b099be20"><path d="M 148.6875 71.117188 L 71.261719 148.546875 L 0.195312 77.480469 L 77.625 0.0546875 Z M 148.6875 71.117188 " clip-rule="nonzero"/></clipPath><clipPath id="5410c4ee51"><rect x="0" width="149" y="0" height="149"/></clipPath></defs><rect x="-37.5" width="450" fill="#ffffff" y="-37.499999" height="449.999989" fill-opacity="1"/><rect x="-37.5" width="450" fill="#ffffff" y="-37.499999" height="449.999989" fill-opacity="1"/><g clip-path="url(#947c899a1b)"><g clip-path="url(#11b320c60a)"><g transform="matrix(1, 0, 0, 1, 150, 76)"><g clip-path="url(#5410c4ee51)"><g clip-path="url(#12947478e5)"><g clip-path="url(#aa0e09c442)"><g clip-path="url(#53b099be20)"><path fill="#393636" d="M 35.859375 42.328125 L 56.683594 42.328125 L 56.683594 77.589844 L 105.910156 28.363281 L 120.636719 43.089844 L 71.410156 92.3125 L 106.667969 92.3125 L 106.667969 113.136719 L 35.859375 113.136719 Z M 35.859375 42.328125 " fill-opacity="1" fill-rule="nonzero"/></g></g></g></g></g></g></g></svg>