<svg xmlns="http://www.w3.org/2000/svg" xmlns:xlink="http://www.w3.org/1999/xlink" width="500" zoomAndPan="magnify" viewBox="0 0 375 374.999991" height="500" preserveAspectRatio="xMidYMid meet" version="1.0"><defs><clipPath id="13518b099f"><path d="M 157 157 L 218 157 L 218 218 L 157 218 Z M 157 157 " clip-rule="nonzero"/></clipPath><clipPath id="f318372b5a"><path d="M 157.492188 188.835938 L 188.785156 157.546875 L 217.421875 186.183594 L 186.132812 217.472656 Z M 157.492188 188.835938 " clip-rule="nonzero"/></clipPath><clipPath id="ffebbf961a"><path d="M 14 11 L 50 11 L 50 47 L 14 47 Z M 14 11 " clip-rule="nonzero"/></clipPath><clipPath id="e2c66499d3"><path d="M 0.492188 31.835938 L 31.785156 0.546875 L 60.421875 29.183594 L 29.132812 60.472656 Z M 0.492188 31.835938 " clip-rule="nonzero"/></clipPath><clipPath id="3725af3946"><path d="M 60.496094 29.160156 L 29.207031 60.449219 L 0.570312 31.808594 L 31.859375 0.519531 Z M 60.496094 29.160156 " clip-rule="nonzero"/></clipPath><clipPath id="f161e01e60"><rect x="0" width="61" y="0" height="61"/></clipPath></defs><g clip-path="url(#13518b099f)"><g clip-path="url(#f318372b5a)"><g transform="matrix(1, 0, 0, 1, 157, 157)"><g clip-path="url(#f161e01e60)"><g clip-path="url(#ffebbf961a)"><g clip-path="url(#e2c66499d3)"><g clip-path="url(#3725af3946)"><path fill="#393636" d="M 14.832031 17.503906 L 23.257812 17.503906 L 23.257812 31.777344 L 43.183594 11.851562 L 49.144531 17.8125 L 29.21875 37.734375 L 43.492188 37.734375 L 43.492188 46.164062 L 14.832031 46.164062 Z M 14.832031 17.503906 " fill-opacity="1" fill-rule="nonzero"/></g></g></g></g></g></g></g></svg>